<?xml version="1.0" encoding="UTF-8"?><svg id="b" xmlns="http://www.w3.org/2000/svg" viewBox="0 0 501.22 100.69"><g id="c"><path d="m58.86,7.79C51.22,3.65,42.25,1.57,31.95,1.57H0v97.55h31.95c10.3,0,19.27-2.07,26.91-6.22,7.64-4.15,13.55-9.91,17.74-17.28,4.19-7.38,6.29-15.82,6.29-25.34s-2.09-17.94-6.29-25.27c-4.19-7.33-10.1-13.07-17.74-17.22Zm2.03,59.97c-2.71,4.93-6.48,8.77-11.33,11.52-4.84,2.75-10.59,4.12-17.22,4.12h-14.4V17.28h14.4c6.63,0,12.37,1.35,17.22,4.06,4.84,2.71,8.62,6.53,11.33,11.46,2.7,4.93,4.06,10.76,4.06,17.48s-1.35,12.55-4.06,17.48Z" fill="#010203"/><path d="m138.12,29.53c-4.45-2.14-9.6-3.21-15.45-3.21-4.8,0-9.25.79-13.36,2.36-4.1,1.57-7.66,3.73-10.67,6.48-3.01,2.75-5.22,6-6.61,9.75l14.01,6.81c1.31-3.14,3.38-5.72,6.22-7.72,2.84-2.01,6.09-3.01,9.76-3.01,3.93,0,7.07,1.03,9.43,3.08,2.36,2.05,3.54,4.61,3.54,7.66v2.31l-21.08,3.45c-5.59.87-10.21,2.36-13.88,4.45-3.67,2.1-6.4,4.69-8.18,7.79-1.79,3.1-2.68,6.61-2.68,10.54s1,7.7,3.01,10.8c2.01,3.1,4.87,5.48,8.58,7.14,3.71,1.66,8.05,2.49,13.03,2.49,3.93,0,7.48-.52,10.67-1.57,3.19-1.05,6.07-2.62,8.64-4.71,1.04-.85,2.02-1.77,2.95-2.77v7.48h16.24v-47.4c0-4.98-1.24-9.38-3.73-13.22-2.49-3.84-5.96-6.83-10.41-8.97Zm-5.37,49.43c-1.49,2.71-3.6,4.82-6.35,6.35-2.75,1.53-5.91,2.29-9.49,2.29-2.8,0-5.13-.72-7-2.16-1.88-1.44-2.82-3.38-2.82-5.83s.83-4.56,2.49-6.09c1.66-1.53,4.19-2.6,7.59-3.21l17.81-3.16v3.03c0,3.14-.74,6.07-2.23,8.77Z" fill="#010203"/><path d="m218.53,31.16c-5.68-3.23-12.05-4.84-19.12-4.84s-13.31,1.62-18.99,4.84c-5.67,3.23-10.21,7.64-13.62,13.22-3.4,5.59-5.11,11.96-5.11,19.12s1.7,13.53,5.11,19.12c3.4,5.59,7.96,10,13.68,13.22,5.72,3.23,12.02,4.84,18.92,4.84s13.31-1.61,18.99-4.84c5.67-3.23,10.21-7.64,13.62-13.22,3.4-5.59,5.11-11.96,5.11-19.12s-1.68-13.64-5.04-19.18c-3.36-5.54-7.88-9.93-13.55-13.16Zm-1.9,43.41c-1.7,3.27-4.02,5.83-6.94,7.66-2.93,1.83-6.35,2.75-10.28,2.75s-7.25-.92-10.21-2.75c-2.97-1.83-5.3-4.39-7-7.66-1.7-3.27-2.55-6.96-2.55-11.06s.85-7.77,2.55-11c1.7-3.23,4.04-5.76,7-7.59,2.97-1.83,6.37-2.75,10.21-2.75s7.35.92,10.28,2.75c2.92,1.83,5.24,4.37,6.94,7.59,1.7,3.23,2.55,6.9,2.55,11s-.85,7.79-2.55,11.06Z" fill="#010203"/><path d="m304.03,31.29c-5.41-3.32-11.48-4.98-18.2-4.98-5.5,0-10.34,1.07-14.53,3.21-2.85,1.46-5.29,3.32-7.33,5.56V0h-17.28v99.12h16.24v-8.03c2.3,2.8,5.15,5,8.58,6.59,4.32,2.01,9.06,3.01,14.21,3.01,6.89,0,13.05-1.64,18.46-4.91,5.41-3.27,9.69-7.75,12.83-13.42,3.14-5.67,4.71-11.96,4.71-18.85s-1.59-13.27-4.78-18.85c-3.19-5.59-7.49-10.04-12.9-13.36Zm-2.75,43.34c-1.75,3.23-4.12,5.76-7.14,7.59-3.01,1.83-6.48,2.75-10.41,2.75s-7.14-.92-10.15-2.75c-3.01-1.83-5.37-4.36-7.07-7.59-1.7-3.23-2.55-6.94-2.55-11.13s.85-7.77,2.55-11c1.7-3.23,4.06-5.76,7.07-7.59,3.01-1.83,6.39-2.75,10.15-2.75s7.4.92,10.41,2.75c3.01,1.83,5.39,4.37,7.14,7.59,1.75,3.23,2.62,6.9,2.62,11s-.87,7.9-2.62,11.13Z" fill="#010203"/><path d="m419.25,36.66c-2.97-3.23-6.57-5.76-10.8-7.59-4.23-1.83-9.15-2.75-14.73-2.75-6.72,0-12.75,1.62-18.07,4.84-5.33,3.23-9.56,7.62-12.7,13.16-3.14,5.54-4.71,11.89-4.71,19.05s1.53,13.18,4.58,18.85c3.05,5.68,7.35,10.17,12.9,13.49,5.54,3.32,11.98,4.98,19.31,4.98,4.8,0,9.25-.74,13.36-2.23,4.1-1.48,7.64-3.54,10.61-6.15,2.97-2.62,5.15-5.63,6.55-9.03l-13.88-6.81c-1.57,2.8-3.73,5.02-6.48,6.68-2.75,1.66-6.09,2.49-10.02,2.49s-7.4-.92-10.41-2.75c-3.01-1.83-5.28-4.43-6.81-7.79-.92-2.02-1.49-4.23-1.73-6.61h51.29c.35-1.05.59-2.2.72-3.47.13-1.26.2-2.55.2-3.86,0-4.8-.79-9.27-2.36-13.42-1.57-4.14-3.84-7.83-6.81-11.06Zm-35.09,6.55c2.79-1.83,5.98-2.75,9.56-2.75s6.96.92,9.62,2.75c2.66,1.83,4.58,4.32,5.76,7.46.54,1.43.85,2.97.96,4.58h-33.51c.29-1.5.71-2.9,1.25-4.19,1.44-3.4,3.56-6.02,6.35-7.86Z" fill="#010203"/><path d="m497.82,39.22c-2.27-4.06-5.43-7.22-9.49-9.49-4.06-2.27-8.71-3.4-13.94-3.4s-9.49,1.11-13.29,3.34c-2.93,1.72-5.22,4.05-6.87,6.99v-8.76h-16.24v71.23h17.28v-41.77c0-3.14.61-5.85,1.83-8.12,1.22-2.27,2.92-4.01,5.11-5.24,2.18-1.22,4.67-1.83,7.46-1.83s5.28.61,7.46,1.83c2.18,1.22,3.88,2.97,5.11,5.24,1.22,2.27,1.83,4.98,1.83,8.12v41.77h17.15v-45.83c0-5.32-1.13-10.02-3.4-14.08Z" fill="#010203"/><path d="m284.19,74.48c1.98,0,3.7-.46,5.17-1.38,1.47-.92,2.63-2.21,3.49-3.85.86-1.65,1.28-3.5,1.28-5.57s-.43-3.91-1.28-5.53c-.86-1.62-2.02-2.9-3.49-3.82-1.47-.92-3.19-1.38-5.17-1.38s-3.65.46-5.14,1.38c-1.49.92-2.67,2.2-3.52,3.82-.86,1.63-1.28,3.47-1.28,5.53s.43,3.92,1.28,5.57c.86,1.65,2.03,2.93,3.52,3.85,1.49.92,3.21,1.38,5.14,1.38Z" fill="#06f"/><path d="m340.02,99.12c1.72,0,3.22-.4,4.5-1.2,1.28-.8,2.29-1.92,3.04-3.35.75-1.43,1.12-3.05,1.12-4.84s-.37-3.4-1.12-4.81c-.75-1.41-1.76-2.52-3.04-3.32-1.28-.8-2.78-1.2-4.5-1.2s-3.17.4-4.47,1.2c-1.3.8-2.32,1.91-3.07,3.32-.75,1.41-1.12,3.02-1.12,4.81s.37,3.41,1.12,4.84c.75,1.43,1.77,2.55,3.07,3.35,1.3.8,2.79,1.2,4.47,1.2Z" fill="#39b54a"/><path d="m340.02,45.06c1.72,0,3.22-.4,4.5-1.2,1.28-.8,2.29-1.92,3.04-3.35.75-1.43,1.12-3.05,1.12-4.84s-.37-3.4-1.12-4.81c-.75-1.41-1.76-2.52-3.04-3.32-1.28-.8-2.78-1.2-4.5-1.2s-3.17.4-4.47,1.2c-1.3.8-2.32,1.91-3.07,3.32-.75,1.41-1.12,3.02-1.12,4.81s.37,3.41,1.12,4.84c.75,1.43,1.77,2.55,3.07,3.35,1.3.8,2.79,1.2,4.47,1.2Z" fill="#ec1c24"/><path d="m340.02,73.08c1.72,0,3.22-.4,4.5-1.2,1.28-.8,2.29-1.92,3.04-3.35.75-1.43,1.12-3.05,1.12-4.84s-.37-3.4-1.12-4.81c-.75-1.41-1.76-2.52-3.04-3.32-1.28-.8-2.78-1.2-4.5-1.2s-3.17.4-4.47,1.2c-1.3.8-2.32,1.91-3.07,3.32-.75,1.41-1.12,3.02-1.12,4.81s.37,3.41,1.12,4.84c.75,1.43,1.77,2.55,3.07,3.35,1.3.8,2.79,1.2,4.47,1.2Z" fill="#f7941d"/></g></svg>